<svg viewBox="0 0 400 400" xmlns="http://www.w3.org/2000/svg">
  <!-- Background with wavy pattern -->
  <defs>
    <pattern id="waves1" x="0" y="0" width="40" height="40" patternUnits="userSpaceOnUse">
      <path d="M0 20 Q 10 15, 20 20 T 40 20" stroke="#078860" stroke-width="1.5" fill="none" opacity="0.3"/>
      <path d="M0 25 Q 10 20, 20 25 T 40 25" stroke="#078860" stroke-width="1.5" fill="none" opacity="0.3"/>
    </pattern>
  </defs>

  <!-- Main card background -->
  <rect width="400" height="400" rx="20" fill="#0ACB8B"/>
  <rect width="400" height="400" rx="20" fill="url(#waves1)"/>

  <!-- Card border -->
  <rect width="400" height="400" rx="20" fill="none" stroke="#000" stroke-width="6"/>

  <!-- Shield/Badge shape -->
  <path d="M200 80 L240 100 L240 180 Q240 220 200 260 Q160 220 160 180 L160 100 Z"
        fill="#FFBF23" stroke="#000" stroke-width="4"/>

  <!-- Inner shield detail -->
  <path d="M200 100 L230 115 L230 180 Q230 210 200 240 Q170 210 170 180 L170 115 Z"
        fill="#FFD7EF" stroke="#000" stroke-width="3"/>

  <!-- Checkmark -->
  <path d="M185 175 L195 190 L220 150"
        fill="none" stroke="#0ACB8B" stroke-width="8" stroke-linecap="round" stroke-linejoin="round"/>

  <!-- Stars around shield -->
  <g fill="#FE393C" stroke="#000" stroke-width="2">
    <path d="M150 120 L153 128 L161 128 L155 133 L158 141 L150 136 L142 141 L145 133 L139 128 L147 128 Z"/>
    <path d="M250 130 L253 138 L261 138 L255 143 L258 151 L250 146 L242 151 L245 143 L239 138 L247 138 Z"/>
    <path d="M160 220 L163 228 L171 228 L165 233 L168 241 L160 236 L152 241 L155 233 L149 228 L157 228 Z"/>
  </g>

  <!-- Person holding device -->
  <g transform="translate(200, 280)">
    <!-- Head -->
    <circle cx="0" cy="0" r="20" fill="#FFD7EF" stroke="#000" stroke-width="3"/>
    <!-- Hair -->
    <path d="M-15 -8 Q-18 -15, -10 -18 Q0 -20, 10 -18 Q18 -15, 15 -8"
          fill="#000" stroke="#000" stroke-width="2"/>
    <!-- Eyes -->
    <circle cx="-6" cy="-2" r="2" fill="#000"/>
    <circle cx="6" cy="-2" r="2" fill="#000"/>
    <!-- Smile -->
    <path d="M-8 5 Q0 10, 8 5" fill="none" stroke="#000" stroke-width="2" stroke-linecap="round"/>

    <!-- Body -->
    <rect x="-20" y="20" width="40" height="35" rx="5" fill="#91C1ED" stroke="#000" stroke-width="3"/>

    <!-- Arms -->
    <rect x="-35" y="25" width="15" height="25" rx="7" fill="#FFD7EF" stroke="#000" stroke-width="3"/>
    <rect x="20" y="25" width="15" height="25" rx="7" fill="#FFD7EF" stroke="#000" stroke-width="3"/>

    <!-- Laptop/Device -->
    <rect x="-18" y="40" width="36" height="3" fill="#FFBF23" stroke="#000" stroke-width="2"/>
  </g>

  <!-- Decorative plants -->
  <ellipse cx="50" cy="370" rx="25" ry="30" fill="#07875D" stroke="#000" stroke-width="3"/>
  <ellipse cx="40" cy="360" rx="20" ry="25" fill="#0ACB8B" stroke="#000" stroke-width="3"/>

  <ellipse cx="350" cy="370" rx="25" ry="30" fill="#07875D" stroke="#000" stroke-width="3"/>
  <ellipse cx="360" cy="360" rx="20" ry="25" fill="#0ACB8B" stroke="#000" stroke-width="3"/>
</svg>
