<svg viewBox="0 0 400 400" xmlns="http://www.w3.org/2000/svg">
  <!-- Background with wavy pattern -->
  <defs>
    <pattern id="waves2" x="0" y="0" width="40" height="40" patternUnits="userSpaceOnUse">
      <path d="M0 20 Q 10 15, 20 20 T 40 20" stroke="#7AA0CC" stroke-width="1.5" fill="none" opacity="0.3"/>
      <path d="M0 25 Q 10 20, 20 25 T 40 25" stroke="#7AA0CC" stroke-width="1.5" fill="none" opacity="0.3"/>
    </pattern>
  </defs>

  <!-- Main card background -->
  <rect width="400" height="400" rx="20" fill="#91C1ED"/>
  <rect width="400" height="400" rx="20" fill="url(#waves2)"/>

  <!-- Card border -->
  <rect width="400" height="400" rx="20" fill="none" stroke="#000" stroke-width="6"/>

  <!-- Toolbox -->
  <g transform="translate(200, 120)">
    <!-- Toolbox body -->
    <rect x="-60" y="0" width="120" height="80" rx="5" fill="#FE393C" stroke="#000" stroke-width="4"/>
    <rect x="-55" y="5" width="110" height="70" rx="3" fill="#FFBF23" stroke="#000" stroke-width="3"/>

    <!-- Handle -->
    <path d="M-30 0 Q-30 -20, 0 -20 Q30 -20, 30 0"
          fill="none" stroke="#000" stroke-width="4" stroke-linecap="round"/>

    <!-- Lock detail -->
    <rect x="-8" y="35" width="16" height="20" rx="2" fill="#FFD7EF" stroke="#000" stroke-width="2"/>
    <circle cx="0" cy="45" r="4" fill="#000"/>
  </g>

  <!-- Wrench -->
  <g transform="translate(120, 240) rotate(-30)">
    <rect x="-10" y="0" width="20" height="80" rx="8" fill="#0ACB8B" stroke="#000" stroke-width="3"/>
    <circle cx="0" cy="0" r="18" fill="#0ACB8B" stroke="#000" stroke-width="3"/>
    <circle cx="0" cy="0" r="8" fill="#FFD7EF" stroke="#000" stroke-width="2"/>
  </g>

  <!-- Screwdriver -->
  <g transform="translate(280, 240) rotate(30)">
    <rect x="-6" y="0" width="12" height="70" rx="3" fill="#FFBF23" stroke="#000" stroke-width="3"/>
    <path d="M-8 70 L0 90 L8 70 Z" fill="#91C1ED" stroke="#000" stroke-width="3"/>
    <rect x="-8" y="0" width="16" height="15" rx="2" fill="#FE393C" stroke="#000" stroke-width="2"/>
  </g>

  <!-- Gear icon -->
  <g transform="translate(200, 280)">
    <circle cx="0" cy="0" r="25" fill="#FFD7EF" stroke="#000" stroke-width="3"/>
    <circle cx="0" cy="0" r="12" fill="#FFBF23" stroke="#000" stroke-width="3"/>
    <!-- Gear teeth -->
    <rect x="-4" y="-30" width="8" height="10" fill="#FFD7EF" stroke="#000" stroke-width="2"/>
    <rect x="-4" y="20" width="8" height="10" fill="#FFD7EF" stroke="#000" stroke-width="2"/>
    <rect x="-30" y="-4" width="10" height="8" fill="#FFD7EF" stroke="#000" stroke-width="2"/>
    <rect x="20" y="-4" width="10" height="8" fill="#FFD7EF" stroke="#000" stroke-width="2"/>
  </g>

  <!-- Decorative screws/bolts -->
  <g fill="#FE393C" stroke="#000" stroke-width="2">
    <circle cx="80" cy="100" r="8"/>
    <line x1="80" y1="95" x2="80" y2="105" stroke="#000" stroke-width="2"/>

    <circle cx="320" cy="120" r="8"/>
    <line x1="315" y1="120" x2="325" y2="120" stroke="#000" stroke-width="2"/>

    <circle cx="90" cy="320" r="8"/>
    <line x1="85" y1="320" x2="95" y2="320" stroke="#000" stroke-width="2"/>
  </g>

  <!-- Sparkle effects -->
  <g fill="#FFBF23" stroke="#000" stroke-width="2">
    <path d="M320 280 L323 288 L331 288 L325 293 L328 301 L320 296 L312 301 L315 293 L309 288 L317 288 Z"/>
    <path d="M70 200 L72 206 L78 206 L73 210 L75 216 L70 212 L65 216 L67 210 L62 206 L68 206 Z"/>
  </g>

  <!-- Decorative plants -->
  <ellipse cx="50" cy="370" rx="25" ry="30" fill="#07875D" stroke="#000" stroke-width="3"/>
  <ellipse cx="40" cy="360" rx="20" ry="25" fill="#0ACB8B" stroke="#000" stroke-width="3"/>

  <ellipse cx="350" cy="370" rx="25" ry="30" fill="#07875D" stroke="#000" stroke-width="3"/>
  <ellipse cx="360" cy="360" rx="20" ry="25" fill="#0ACB8B" stroke="#000" stroke-width="3"/>
</svg>
