<svg viewBox="0 0 400 400" xmlns="http://www.w3.org/2000/svg">
  <!-- Background with wavy pattern -->
  <defs>
    <pattern id="waves4" x="0" y="0" width="40" height="40" patternUnits="userSpaceOnUse">
      <path d="M0 20 Q 10 15, 20 20 T 40 20" stroke="#E5B8D9" stroke-width="1.5" fill="none" opacity="0.3"/>
      <path d="M0 25 Q 10 20, 20 25 T 40 25" stroke="#E5B8D9" stroke-width="1.5" fill="none" opacity="0.3"/>
    </pattern>

    <!-- Pink to Blue gradient -->
    <linearGradient id="grad1" x1="0%" y1="0%" x2="100%" y2="0%">
      <stop offset="0%" style="stop-color:#FFD7EF;stop-opacity:1" />
      <stop offset="100%" style="stop-color:#91C1ED;stop-opacity:1" />
    </linearGradient>
  </defs>

  <!-- Main card background -->
  <rect width="400" height="400" rx="20" fill="url(#grad1)"/>
  <rect width="400" height="400" rx="20" fill="url(#waves4)"/>

  <!-- Card border -->
  <rect width="400" height="400" rx="20" fill="none" stroke="#000" stroke-width="6"/>

  <!-- Robot/Automation character -->
  <g transform="translate(200, 200)">
    <!-- Robot body -->
    <rect x="-40" y="0" width="80" height="90" rx="10" fill="#91C1ED" stroke="#000" stroke-width="4"/>

    <!-- Robot head -->
    <rect x="-35" y="-60" width="70" height="55" rx="8" fill="#FFBF23" stroke="#000" stroke-width="4"/>

    <!-- Antenna -->
    <line x1="0" y1="-60" x2="0" y2="-80" stroke="#000" stroke-width="3"/>
    <circle cx="0" cy="-85" r="8" fill="#FE393C" stroke="#000" stroke-width="3"/>

    <!-- Eyes (digital display style) -->
    <rect x="-25" y="-45" width="18" height="18" rx="3" fill="#0ACB8B" stroke="#000" stroke-width="2"/>
    <rect x="7" y="-45" width="18" height="18" rx="3" fill="#0ACB8B" stroke="#000" stroke-width="2"/>

    <!-- Screen/mouth -->
    <rect x="-25" y="-18" width="50" height="10" rx="3" fill="#FFD7EF" stroke="#000" stroke-width="2"/>

    <!-- Control panel on body -->
    <circle cx="-15" cy="25" r="8" fill="#FE393C" stroke="#000" stroke-width="2"/>
    <circle cx="0" cy="25" r="8" fill="#FFBF23" stroke="#000" stroke-width="2"/>
    <circle cx="15" cy="25" r="8" fill="#0ACB8B" stroke="#000" stroke-width="2"/>

    <!-- Display screen on body -->
    <rect x="-25" y="45" width="50" height="30" rx="3" fill="#FFD7EF" stroke="#000" stroke-width="3"/>
    <line x1="-20" y1="55" x2="-5" y2="55" stroke="#0ACB8B" stroke-width="3"/>
    <line x1="-20" y1="65" x2="0" y2="65" stroke="#91C1ED" stroke-width="3"/>

    <!-- Arms with tools -->
    <g>
      <!-- Left arm -->
      <rect x="-60" y="10" width="20" height="40" rx="8" fill="#FFBF23" stroke="#000" stroke-width="3"/>
      <circle cx="-50" cy="55" r="12" fill="#FFD7EF" stroke="#000" stroke-width="3"/>
      <!-- Wrench in hand -->
      <rect x="-53" y="55" width="6" height="20" rx="2" fill="#FE393C" stroke="#000" stroke-width="2"/>

      <!-- Right arm -->
      <rect x="40" y="10" width="20" height="40" rx="8" fill="#FFBF23" stroke="#000" stroke-width="3"/>
      <circle cx="50" cy="55" r="12" fill="#FFD7EF" stroke="#000" stroke-width="3"/>
      <!-- Screwdriver in hand -->
      <rect x="47" y="55" width="6" height="20" rx="2" fill="#0ACB8B" stroke="#000" stroke-width="2"/>
    </g>

    <!-- Base/legs -->
    <rect x="-30" y="90" width="25" height="15" rx="5" fill="#07875D" stroke="#000" stroke-width="3"/>
    <rect x="5" y="90" width="25" height="15" rx="5" fill="#07875D" stroke="#000" stroke-width="3"/>
  </g>

  <!-- Floating gears -->
  <g fill="#FFBF23" stroke="#000" stroke-width="3">
    <!-- Top left gear -->
    <g transform="translate(80, 100)">
      <circle cx="0" cy="0" r="25" fill="#0ACB8B" stroke="#000" stroke-width="3"/>
      <circle cx="0" cy="0" r="12" fill="#FFD7EF" stroke="#000" stroke-width="2"/>
      <rect x="-4" y="-30" width="8" height="12" fill="#0ACB8B" stroke="#000" stroke-width="2"/>
      <rect x="-4" y="18" width="8" height="12" fill="#0ACB8B" stroke="#000" stroke-width="2"/>
      <rect x="-30" y="-4" width="12" height="8" fill="#0ACB8B" stroke="#000" stroke-width="2"/>
      <rect x="18" y="-4" width="12" height="8" fill="#0ACB8B" stroke="#000" stroke-width="2"/>
    </g>

    <!-- Top right gear -->
    <g transform="translate(320, 120)">
      <circle cx="0" cy="0" r="20" fill="#FFBF23" stroke="#000" stroke-width="3"/>
      <circle cx="0" cy="0" r="10" fill="#FFD7EF" stroke="#000" stroke-width="2"/>
      <rect x="-3" y="-24" width="6" height="8" fill="#FFBF23" stroke="#000" stroke-width="2"/>
      <rect x="-3" y="16" width="6" height="8" fill="#FFBF23" stroke="#000" stroke-width="2"/>
      <rect x="-24" y="-3" width="8" height="6" fill="#FFBF23" stroke="#000" stroke-width="2"/>
      <rect x="16" y="-3" width="8" height="6" fill="#FFBF23" stroke="#000" stroke-width="2"/>
    </g>
  </g>

  <!-- Automation lines/connections -->
  <g stroke="#FE393C" stroke-width="2" stroke-dasharray="5,5" fill="none">
    <path d="M100 120 Q150 100, 165 140"/>
    <path d="M300 130 Q250 120, 235 160"/>
  </g>

  <!-- Lightning bolts (automation power) -->
  <g fill="#FFBF23" stroke="#000" stroke-width="2">
    <path d="M70 280 L80 300 L75 300 L85 325 L70 310 L75 310 Z"/>
    <path d="M330 280 L340 300 L335 300 L345 325 L330 310 L335 310 Z"/>
  </g>

  <!-- Decorative plants -->
  <ellipse cx="50" cy="370" rx="25" ry="30" fill="#07875D" stroke="#000" stroke-width="3"/>
  <ellipse cx="40" cy="360" rx="20" ry="25" fill="#0ACB8B" stroke="#000" stroke-width="3"/>

  <ellipse cx="350" cy="370" rx="25" ry="30" fill="#07875D" stroke="#000" stroke-width="3"/>
  <ellipse cx="360" cy="360" rx="20" ry="25" fill="#0ACB8B" stroke="#000" stroke-width="3"/>
</svg>
